<?xml version="1.0" encoding="UTF-8"?>
<svg width="46px" height="35px" viewBox="0 0 46 35" version="1.1" xmlns="http://www.w3.org/2000/svg" xmlns:xlink="http://www.w3.org/1999/xlink">
    <!-- Generator: Sketch 62 (91390) - https://sketch.com -->
    <title>delete</title>
    <desc>Created with Sketch.</desc>
    <g id="页面-1" stroke="none" stroke-width="1" fill="none" fill-rule="evenodd">
        <g id="1-学科键盘" transform="translate(-1768.000000, -656.000000)">
            <g id="输入框">
                <g id="keyboard_light_landscape" transform="translate(0.000000, 585.000000)">
                    <g id="编组" transform="translate(1698.750000, 26.250000)">
                        <g id="delete" transform="translate(50.625000, 16.875000)">
                            <g id="删除">
                                <rect id="key-boarder" fill="#313C42" opacity="0" x="0" y="0" width="90" height="90" rx="3.76"></rect>
                                <path d="M60.05,28.08 L32.038,28.08 C30.722,28.08 29.594,28.644 28.842,29.772 L18.69,45 L28.842,60.228 C29.594,61.168 30.722,61.92 32.038,61.92 L60.05,61.92 C62.118,61.92 63.81,60.228 63.81,58.16 L63.81,31.84 C63.81,29.772 62.118,28.08 60.05,28.08 L60.05,28.08 Z M54.41,51.768 L51.778,54.4 L45.01,47.632 L38.242,54.4 L35.61,51.768 L42.378,45 L35.61,38.232 L38.242,35.6 L45.01,42.368 L51.778,35.6 L54.41,38.232 L47.642,45 L54.41,51.768 L54.41,51.768 Z" id="delete" fill="#7F8B8F"></path>
                            </g>
                        </g>
                    </g>
                </g>
            </g>
        </g>
    </g>
</svg>